<mxfile host="app.diagrams.net" modified="2023-06-08T17:43:07.563Z" agent="Mozilla/5.0 (Windows NT 10.0; Win64; x64) AppleWebKit/537.36 (KHTML, like Gecko) Chrome/113.0.0.0 Safari/537.36 OPR/99.0.0.0" etag="WorJmiOENus2X4PKhAwt" version="21.3.7" type="device">
  <diagram id="C5RBs43oDa-KdzZeNtuy" name="Page-1">
    <mxGraphModel dx="1162" dy="638" grid="1" gridSize="10" guides="1" tooltips="1" connect="1" arrows="1" fold="1" page="1" pageScale="1" pageWidth="827" pageHeight="1169" math="0" shadow="0">
      <root>
        <mxCell id="WIyWlLk6GJQsqaUBKTNV-0" />
        <mxCell id="WIyWlLk6GJQsqaUBKTNV-1" parent="WIyWlLk6GJQsqaUBKTNV-0" />
        <mxCell id="mHaGibbf7gEL7giQQMRN-1" value="" style="edgeStyle=orthogonalEdgeStyle;rounded=0;orthogonalLoop=1;jettySize=auto;html=1;" edge="1" parent="WIyWlLk6GJQsqaUBKTNV-1" source="WIyWlLk6GJQsqaUBKTNV-3" target="mHaGibbf7gEL7giQQMRN-0">
          <mxGeometry relative="1" as="geometry" />
        </mxCell>
        <mxCell id="WIyWlLk6GJQsqaUBKTNV-3" value="start signal" style="rounded=1;whiteSpace=wrap;html=1;fontSize=12;glass=0;strokeWidth=1;shadow=0;" parent="WIyWlLk6GJQsqaUBKTNV-1" vertex="1">
          <mxGeometry x="160" y="110" width="120" height="40" as="geometry" />
        </mxCell>
        <mxCell id="mHaGibbf7gEL7giQQMRN-51" value="DA" style="edgeStyle=orthogonalEdgeStyle;rounded=0;orthogonalLoop=1;jettySize=auto;html=1;entryX=0;entryY=0.5;entryDx=0;entryDy=0;" edge="1" parent="WIyWlLk6GJQsqaUBKTNV-1" source="WIyWlLk6GJQsqaUBKTNV-6" target="mHaGibbf7gEL7giQQMRN-30">
          <mxGeometry relative="1" as="geometry">
            <mxPoint x="220" y="780" as="targetPoint" />
            <Array as="points">
              <mxPoint x="220" y="803" />
            </Array>
          </mxGeometry>
        </mxCell>
        <mxCell id="mHaGibbf7gEL7giQQMRN-92" value="NE" style="edgeStyle=orthogonalEdgeStyle;rounded=0;orthogonalLoop=1;jettySize=auto;html=1;exitX=0;exitY=0.5;exitDx=0;exitDy=0;entryX=0;entryY=0.5;entryDx=0;entryDy=0;" edge="1" parent="WIyWlLk6GJQsqaUBKTNV-1" source="WIyWlLk6GJQsqaUBKTNV-6" target="mHaGibbf7gEL7giQQMRN-0">
          <mxGeometry relative="1" as="geometry" />
        </mxCell>
        <mxCell id="WIyWlLk6GJQsqaUBKTNV-6" value="ZID NAP 10cm" style="rhombus;whiteSpace=wrap;html=1;shadow=0;fontFamily=Helvetica;fontSize=12;align=center;strokeWidth=1;spacing=6;spacingTop=-4;" parent="WIyWlLk6GJQsqaUBKTNV-1" vertex="1">
          <mxGeometry x="170" y="560" width="100" height="100" as="geometry" />
        </mxCell>
        <mxCell id="mHaGibbf7gEL7giQQMRN-25" style="edgeStyle=orthogonalEdgeStyle;rounded=0;orthogonalLoop=1;jettySize=auto;html=1;exitX=0.5;exitY=1;exitDx=0;exitDy=0;entryX=0.5;entryY=0;entryDx=0;entryDy=0;" edge="1" parent="WIyWlLk6GJQsqaUBKTNV-1" source="mHaGibbf7gEL7giQQMRN-72" target="WIyWlLk6GJQsqaUBKTNV-6">
          <mxGeometry relative="1" as="geometry" />
        </mxCell>
        <mxCell id="mHaGibbf7gEL7giQQMRN-74" value="DA" style="edgeLabel;html=1;align=center;verticalAlign=middle;resizable=0;points=[];" vertex="1" connectable="0" parent="mHaGibbf7gEL7giQQMRN-25">
          <mxGeometry x="0.8644" y="3" relative="1" as="geometry">
            <mxPoint as="offset" />
          </mxGeometry>
        </mxCell>
        <mxCell id="mHaGibbf7gEL7giQQMRN-80" value="" style="edgeStyle=orthogonalEdgeStyle;rounded=0;orthogonalLoop=1;jettySize=auto;html=1;" edge="1" parent="WIyWlLk6GJQsqaUBKTNV-1" source="mHaGibbf7gEL7giQQMRN-0" target="mHaGibbf7gEL7giQQMRN-46">
          <mxGeometry relative="1" as="geometry" />
        </mxCell>
        <mxCell id="mHaGibbf7gEL7giQQMRN-0" value="napred" style="rounded=1;whiteSpace=wrap;html=1;fontSize=12;glass=0;strokeWidth=1;shadow=0;" vertex="1" parent="WIyWlLk6GJQsqaUBKTNV-1">
          <mxGeometry x="160" y="210" width="120" height="40" as="geometry" />
        </mxCell>
        <mxCell id="mHaGibbf7gEL7giQQMRN-23" style="edgeStyle=orthogonalEdgeStyle;rounded=0;orthogonalLoop=1;jettySize=auto;html=1;exitX=0.5;exitY=1;exitDx=0;exitDy=0;entryX=0.5;entryY=0;entryDx=0;entryDy=0;" edge="1" parent="WIyWlLk6GJQsqaUBKTNV-1" source="mHaGibbf7gEL7giQQMRN-22" target="WIyWlLk6GJQsqaUBKTNV-3">
          <mxGeometry relative="1" as="geometry" />
        </mxCell>
        <mxCell id="mHaGibbf7gEL7giQQMRN-22" value="provera blutut uart" style="rounded=1;whiteSpace=wrap;html=1;fillColor=#0050ef;fontColor=#ffffff;strokeColor=#001DBC;" vertex="1" parent="WIyWlLk6GJQsqaUBKTNV-1">
          <mxGeometry x="160" y="20" width="120" height="40" as="geometry" />
        </mxCell>
        <mxCell id="mHaGibbf7gEL7giQQMRN-40" value="DA" style="edgeStyle=orthogonalEdgeStyle;rounded=0;orthogonalLoop=1;jettySize=auto;html=1;exitX=0.5;exitY=0;exitDx=0;exitDy=0;entryX=1;entryY=0.5;entryDx=0;entryDy=0;" edge="1" parent="WIyWlLk6GJQsqaUBKTNV-1" source="mHaGibbf7gEL7giQQMRN-64" target="mHaGibbf7gEL7giQQMRN-0">
          <mxGeometry x="-0.8" relative="1" as="geometry">
            <mxPoint as="offset" />
          </mxGeometry>
        </mxCell>
        <mxCell id="mHaGibbf7gEL7giQQMRN-42" value="" style="edgeStyle=orthogonalEdgeStyle;rounded=0;orthogonalLoop=1;jettySize=auto;html=1;" edge="1" parent="WIyWlLk6GJQsqaUBKTNV-1" source="mHaGibbf7gEL7giQQMRN-27" target="mHaGibbf7gEL7giQQMRN-41">
          <mxGeometry relative="1" as="geometry" />
        </mxCell>
        <mxCell id="mHaGibbf7gEL7giQQMRN-45" value="ne&lt;br&gt;" style="edgeLabel;html=1;align=center;verticalAlign=middle;resizable=0;points=[];" vertex="1" connectable="0" parent="mHaGibbf7gEL7giQQMRN-42">
          <mxGeometry x="-0.2402" y="-1" relative="1" as="geometry">
            <mxPoint as="offset" />
          </mxGeometry>
        </mxCell>
        <mxCell id="mHaGibbf7gEL7giQQMRN-91" value="" style="edgeStyle=orthogonalEdgeStyle;rounded=0;orthogonalLoop=1;jettySize=auto;html=1;" edge="1" parent="WIyWlLk6GJQsqaUBKTNV-1" source="mHaGibbf7gEL7giQQMRN-27" target="mHaGibbf7gEL7giQQMRN-64">
          <mxGeometry relative="1" as="geometry" />
        </mxCell>
        <mxCell id="mHaGibbf7gEL7giQQMRN-27" value="uhvati levi zid&lt;br&gt;" style="rhombus;whiteSpace=wrap;html=1;" vertex="1" parent="WIyWlLk6GJQsqaUBKTNV-1">
          <mxGeometry x="510" y="437.5" width="80" height="80" as="geometry" />
        </mxCell>
        <mxCell id="mHaGibbf7gEL7giQQMRN-48" value="" style="edgeStyle=orthogonalEdgeStyle;rounded=0;orthogonalLoop=1;jettySize=auto;html=1;" edge="1" parent="WIyWlLk6GJQsqaUBKTNV-1" source="mHaGibbf7gEL7giQQMRN-30" target="mHaGibbf7gEL7giQQMRN-47">
          <mxGeometry relative="1" as="geometry" />
        </mxCell>
        <mxCell id="mHaGibbf7gEL7giQQMRN-30" value="rotira desno 90" style="rounded=1;whiteSpace=wrap;html=1;" vertex="1" parent="WIyWlLk6GJQsqaUBKTNV-1">
          <mxGeometry x="330" y="770" width="50" height="65" as="geometry" />
        </mxCell>
        <mxCell id="mHaGibbf7gEL7giQQMRN-56" value="" style="edgeStyle=orthogonalEdgeStyle;rounded=0;orthogonalLoop=1;jettySize=auto;html=1;" edge="1" parent="WIyWlLk6GJQsqaUBKTNV-1" source="mHaGibbf7gEL7giQQMRN-41" target="mHaGibbf7gEL7giQQMRN-54">
          <mxGeometry relative="1" as="geometry" />
        </mxCell>
        <mxCell id="mHaGibbf7gEL7giQQMRN-41" value="paralelno zid" style="rounded=1;whiteSpace=wrap;html=1;" vertex="1" parent="WIyWlLk6GJQsqaUBKTNV-1">
          <mxGeometry x="650" y="450" width="120" height="60" as="geometry" />
        </mxCell>
        <mxCell id="mHaGibbf7gEL7giQQMRN-81" value="" style="edgeStyle=orthogonalEdgeStyle;rounded=0;orthogonalLoop=1;jettySize=auto;html=1;" edge="1" parent="WIyWlLk6GJQsqaUBKTNV-1" source="mHaGibbf7gEL7giQQMRN-59" target="mHaGibbf7gEL7giQQMRN-72">
          <mxGeometry relative="1" as="geometry" />
        </mxCell>
        <mxCell id="mHaGibbf7gEL7giQQMRN-46" value="meri cm kretanja" style="rounded=1;whiteSpace=wrap;html=1;fillColor=#60a917;fontColor=#ffffff;strokeColor=#2D7600;" vertex="1" parent="WIyWlLk6GJQsqaUBKTNV-1">
          <mxGeometry x="190" y="270" width="60" height="60" as="geometry" />
        </mxCell>
        <mxCell id="mHaGibbf7gEL7giQQMRN-49" value="" style="edgeStyle=orthogonalEdgeStyle;rounded=0;orthogonalLoop=1;jettySize=auto;html=1;" edge="1" parent="WIyWlLk6GJQsqaUBKTNV-1" source="mHaGibbf7gEL7giQQMRN-58" target="mHaGibbf7gEL7giQQMRN-27">
          <mxGeometry relative="1" as="geometry" />
        </mxCell>
        <mxCell id="mHaGibbf7gEL7giQQMRN-47" value="meri cm kretanja" style="rounded=1;whiteSpace=wrap;html=1;fillColor=#60a917;fontColor=#ffffff;strokeColor=#2D7600;" vertex="1" parent="WIyWlLk6GJQsqaUBKTNV-1">
          <mxGeometry x="435" y="645" width="60" height="55" as="geometry" />
        </mxCell>
        <mxCell id="mHaGibbf7gEL7giQQMRN-54" value="meri cm kretanja" style="rounded=1;whiteSpace=wrap;html=1;fillColor=#60a917;fontColor=#ffffff;strokeColor=#2D7600;" vertex="1" parent="WIyWlLk6GJQsqaUBKTNV-1">
          <mxGeometry x="680" y="530" width="60" height="55" as="geometry" />
        </mxCell>
        <mxCell id="mHaGibbf7gEL7giQQMRN-60" value="" style="edgeStyle=orthogonalEdgeStyle;rounded=0;orthogonalLoop=1;jettySize=auto;html=1;" edge="1" parent="WIyWlLk6GJQsqaUBKTNV-1" source="mHaGibbf7gEL7giQQMRN-47" target="mHaGibbf7gEL7giQQMRN-58">
          <mxGeometry relative="1" as="geometry">
            <mxPoint x="415" y="478" as="sourcePoint" />
            <mxPoint x="510" y="478" as="targetPoint" />
          </mxGeometry>
        </mxCell>
        <mxCell id="mHaGibbf7gEL7giQQMRN-58" value="ispis bl" style="rounded=1;whiteSpace=wrap;html=1;fillColor=#0050ef;fontColor=#ffffff;strokeColor=#001DBC;" vertex="1" parent="WIyWlLk6GJQsqaUBKTNV-1">
          <mxGeometry x="440" y="465" width="50" height="25" as="geometry" />
        </mxCell>
        <mxCell id="mHaGibbf7gEL7giQQMRN-62" value="" style="edgeStyle=orthogonalEdgeStyle;rounded=0;orthogonalLoop=1;jettySize=auto;html=1;exitX=0.5;exitY=1;exitDx=0;exitDy=0;entryX=0.5;entryY=1;entryDx=0;entryDy=0;" edge="1" parent="WIyWlLk6GJQsqaUBKTNV-1" source="mHaGibbf7gEL7giQQMRN-54" target="mHaGibbf7gEL7giQQMRN-57">
          <mxGeometry relative="1" as="geometry">
            <mxPoint x="710" y="585" as="sourcePoint" />
            <mxPoint x="550" y="518" as="targetPoint" />
          </mxGeometry>
        </mxCell>
        <mxCell id="mHaGibbf7gEL7giQQMRN-63" value="" style="edgeStyle=orthogonalEdgeStyle;rounded=0;orthogonalLoop=1;jettySize=auto;html=1;" edge="1" parent="WIyWlLk6GJQsqaUBKTNV-1" source="mHaGibbf7gEL7giQQMRN-57" target="mHaGibbf7gEL7giQQMRN-27">
          <mxGeometry relative="1" as="geometry" />
        </mxCell>
        <mxCell id="mHaGibbf7gEL7giQQMRN-57" value="ispis bl" style="rounded=1;whiteSpace=wrap;html=1;fillColor=#0050ef;fontColor=#ffffff;strokeColor=#001DBC;" vertex="1" parent="WIyWlLk6GJQsqaUBKTNV-1">
          <mxGeometry x="525" y="545" width="50" height="25" as="geometry" />
        </mxCell>
        <mxCell id="mHaGibbf7gEL7giQQMRN-64" value="ispis bl" style="rounded=1;whiteSpace=wrap;html=1;fillColor=#0050ef;fontColor=#ffffff;strokeColor=#001DBC;" vertex="1" parent="WIyWlLk6GJQsqaUBKTNV-1">
          <mxGeometry x="525" y="330" width="50" height="25" as="geometry" />
        </mxCell>
        <mxCell id="mHaGibbf7gEL7giQQMRN-66" value="SET X Y&amp;nbsp;" style="rounded=1;whiteSpace=wrap;html=1;" vertex="1" parent="WIyWlLk6GJQsqaUBKTNV-1">
          <mxGeometry x="190" y="160" width="60" height="30" as="geometry" />
        </mxCell>
        <mxCell id="mHaGibbf7gEL7giQQMRN-84" value="NE" style="edgeStyle=orthogonalEdgeStyle;rounded=0;orthogonalLoop=1;jettySize=auto;html=1;entryX=0;entryY=0.5;entryDx=0;entryDy=0;" edge="1" parent="WIyWlLk6GJQsqaUBKTNV-1" source="mHaGibbf7gEL7giQQMRN-72" target="mHaGibbf7gEL7giQQMRN-58">
          <mxGeometry relative="1" as="geometry">
            <mxPoint x="320" y="480" as="targetPoint" />
          </mxGeometry>
        </mxCell>
        <mxCell id="mHaGibbf7gEL7giQQMRN-72" value="da li ima zid levo" style="rhombus;whiteSpace=wrap;html=1;" vertex="1" parent="WIyWlLk6GJQsqaUBKTNV-1">
          <mxGeometry x="180" y="437.5" width="80" height="80" as="geometry" />
        </mxCell>
        <mxCell id="mHaGibbf7gEL7giQQMRN-82" value="" style="edgeStyle=orthogonalEdgeStyle;rounded=0;orthogonalLoop=1;jettySize=auto;html=1;" edge="1" parent="WIyWlLk6GJQsqaUBKTNV-1" source="mHaGibbf7gEL7giQQMRN-46" target="mHaGibbf7gEL7giQQMRN-59">
          <mxGeometry relative="1" as="geometry">
            <mxPoint x="220" y="330" as="sourcePoint" />
            <mxPoint x="220" y="438" as="targetPoint" />
          </mxGeometry>
        </mxCell>
        <mxCell id="mHaGibbf7gEL7giQQMRN-59" value="ispis bl" style="rounded=1;whiteSpace=wrap;html=1;fillColor=#0050ef;fontColor=#ffffff;strokeColor=#001DBC;" vertex="1" parent="WIyWlLk6GJQsqaUBKTNV-1">
          <mxGeometry x="195" y="370" width="50" height="25" as="geometry" />
        </mxCell>
        <mxCell id="mHaGibbf7gEL7giQQMRN-94" value="" style="edgeStyle=orthogonalEdgeStyle;rounded=0;orthogonalLoop=1;jettySize=auto;html=1;" edge="1" parent="WIyWlLk6GJQsqaUBKTNV-1" source="mHaGibbf7gEL7giQQMRN-93" target="mHaGibbf7gEL7giQQMRN-22">
          <mxGeometry relative="1" as="geometry" />
        </mxCell>
        <mxCell id="mHaGibbf7gEL7giQQMRN-93" value="finish" style="rounded=1;whiteSpace=wrap;html=1;" vertex="1" parent="WIyWlLk6GJQsqaUBKTNV-1">
          <mxGeometry x="440" y="10" width="120" height="60" as="geometry" />
        </mxCell>
      </root>
    </mxGraphModel>
  </diagram>
</mxfile>
